# xmcd
#
# Track frame offsets:
#	182
#	13185
#	38970
#	55677
#	69737
#	84927
#	99145
#	117660
#	134165
#	155945
#	166445
#	196230
#	209967
#	227885
#	255155
#	270540
#
# Disc length: 3916 seconds
#
# Revision: 0
# Processed by: cddbd v1.5.1PL2 Copyright (c) Steve Scherf et al.
# Submitted via: dBpowerAMP V4.0
#
DISCID=ea0f4a10
DTITLE=Muddy Waters - Fathers and Sons
DYEAR=1989
DGENRE=Blues
TTITLE0=All Aboard
TTITLE1=Mean Dispostion
TTITLE2=Blow Wind Blow
TTITLE3=Can't Lose What You Ain't Never Had
TTITLE4=Walkin' Thru The park
TTITLE5=Forty Days and Forty Nights
TTITLE6=Standin' Round Cryin'
TTITLE7=I'm Ready
TTITLE8=Twenty Four Hours
TTITLE9=Sugar Sweet
TTITLE10=Long Distance Call
TTITLE11=Baby Please Don't Go
TTITLE12=Honey Bee
TTITLE13=The Same Thing
TTITLE14=Got My Mojo Working, Part One
TTITLE15=Got My Mojo Working, Part Two
EXTD=Muddy Waters, Otis Spann, Michael Bloomfield, Paul Butterfield\nDonald "Duck" Dunn, Sam Lay and Buddy Miles
EXTT0=
EXTT1=
EXTT2=
EXTT3=
EXTT4=
EXTT5=
EXTT6=
EXTT7=
EXTT8=
EXTT9=
EXTT10=
EXTT11=
EXTT12=
EXTT13=
EXTT14=
EXTT15=
PLAYORDER=
